<svg width="50" height="50" viewBox="0 0 50 50" fill="none" xmlns="http://www.w3.org/2000/svg">
<g id="ic:round-location-on">
<path id="Vector" d="M25.0001 4.16675C16.9376 4.16675 10.4167 10.6876 10.4167 18.7501C10.4167 27.4376 19.6251 39.4168 23.4167 43.9793C24.2501 44.9793 25.7709 44.9793 26.6042 43.9793C30.3751 39.4168 39.5834 27.4376 39.5834 18.7501C39.5834 10.6876 33.0626 4.16675 25.0001 4.16675ZM25.0001 23.9584C23.6187 23.9584 22.294 23.4097 21.3172 22.4329C20.3405 21.4562 19.7917 20.1314 19.7917 18.7501C19.7917 17.3687 20.3405 16.044 21.3172 15.0672C22.294 14.0905 23.6187 13.5417 25.0001 13.5417C26.3814 13.5417 27.7062 14.0905 28.6829 15.0672C29.6597 16.044 30.2084 17.3687 30.2084 18.7501C30.2084 20.1314 29.6597 21.4562 28.6829 22.4329C27.7062 23.4097 26.3814 23.9584 25.0001 23.9584Z" fill="white"/>
</g>
</svg>
