<svg width="16" height="16" viewBox="0 0 16 16" fill="none" xmlns="http://www.w3.org/2000/svg">
<g id="ic:round-location-on">
<path id="Vector" d="M7.99992 1.33325C5.41992 1.33325 3.33325 3.41992 3.33325 5.99992C3.33325 8.77992 6.27992 12.6133 7.49325 14.0733C7.75992 14.3933 8.24659 14.3933 8.51325 14.0733C9.71992 12.6133 12.6666 8.77992 12.6666 5.99992C12.6666 3.41992 10.5799 1.33325 7.99992 1.33325ZM7.99992 7.66658C7.55789 7.66658 7.13397 7.49099 6.82141 7.17843C6.50885 6.86587 6.33325 6.44195 6.33325 5.99992C6.33325 5.55789 6.50885 5.13397 6.82141 4.82141C7.13397 4.50885 7.55789 4.33325 7.99992 4.33325C8.44195 4.33325 8.86587 4.50885 9.17843 4.82141C9.49099 5.13397 9.66659 5.55789 9.66659 5.99992C9.66659 6.44195 9.49099 6.86587 9.17843 7.17843C8.86587 7.49099 8.44195 7.66658 7.99992 7.66658Z" fill="url(#paint0_linear_34_1418)"/>
</g>
<defs>
<linearGradient id="paint0_linear_34_1418" x1="3.33325" y1="1.33325" x2="13.4092" y2="1.93791" gradientUnits="userSpaceOnUse">
<stop stop-color="#48B760"/>
<stop offset="1" stop-color="#6BB748"/>
</linearGradient>
</defs>
</svg>
